<?xml version="1.0" standalone="no"?>
<!DOCTYPE svg PUBLIC "-//W3C//DTD SVG 20010904//EN"
 "http://www.w3.org/TR/2001/REC-SVG-20010904/DTD/svg10.dtd">
<svg version="1.0" xmlns="http://www.w3.org/2000/svg"
 width="1918.000000pt" height="992.000000pt" viewBox="0 0 1918.000000 992.000000"
 preserveAspectRatio="xMidYMid meet">

<g transform="translate(0.000000,992.000000) scale(0.100000,-0.100000)"
fill="#000000" stroke="none">
<path d="M4793 9913 c2638 -2 6956 -2 9595 0 2638 1 479 2 -4798 2 -5277 0
-7436 -1 -4797 -2z"/>
<path d="M1720 6604 c-226 -26 -312 -43 -456 -94 -518 -182 -949 -672 -1058
-1200 -84 -412 -2 -892 211 -1227 166 -262 444 -506 728 -638 202 -94 372
-133 615 -141 193 -7 378 15 549 66 606 180 1075 730 1156 1356 6 50 6 52 -22
58 -15 3 -89 9 -163 12 l-136 7 -17 -91 c-24 -128 -59 -230 -122 -357 -63
-128 -126 -215 -239 -329 -295 -296 -687 -434 -1089 -381 -304 39 -572 170
-782 380 -112 111 -179 201 -244 325 -104 198 -154 405 -154 630 -1 214 35
362 133 565 158 324 458 586 785 683 414 123 795 68 1151 -166 113 -74 261
-215 336 -318 108 -151 195 -352 237 -549 l18 -80 158 -3 158 -3 -7 64 c-8 85
-35 185 -91 336 -75 208 -157 349 -298 517 -233 278 -611 497 -965 559 -87 15
-326 27 -392 19z"/>
<path d="M1625 6120 c-261 -52 -456 -159 -639 -350 -131 -138 -204 -258 -259
-423 -47 -139 -75 -347 -62 -458 l7 -59 1014 0 c917 0 1015 -2 1021 -16 17
-44 -54 -222 -139 -347 -113 -167 -289 -295 -493 -358 -390 -119 -842 80
-1040 459 l-27 52 -147 0 c-81 0 -150 -3 -154 -6 -10 -10 31 -114 84 -207 77
-136 157 -235 261 -322 167 -141 294 -207 490 -256 111 -28 139 -31 283 -32
159 -1 196 4 350 47 351 98 659 390 775 736 33 96 60 243 60 318 0 92 -16 193
-32 203 -7 5 -466 9 -1020 9 l-1007 0 5 33 c12 63 86 238 127 299 123 184 308
316 532 379 116 33 317 33 430 0 99 -29 224 -86 301 -139 102 -69 229 -217
294 -342 7 -14 18 -28 24 -32 17 -12 284 -10 291 2 11 18 -79 225 -136 310
-59 88 -200 235 -279 292 -149 106 -338 186 -504 213 -120 20 -298 17 -411 -5z"/>
<path d="M15410 6078 c-86 -23 -171 -112 -190 -201 -24 -103 31 -217 131 -272
47 -26 64 -30 134 -30 123 0 199 47 246 150 26 56 25 156 -1 211 -56 115 -194
177 -320 142z"/>
<path d="M4580 5485 c-154 -34 -300 -137 -355 -249 -73 -148 -44 -339 67 -447
66 -64 151 -105 350 -169 196 -63 213 -74 189 -119 -15 -26 -97 -45 -163 -36
-88 12 -198 52 -287 104 l-85 49 -98 -156 c-54 -87 -98 -162 -98 -167 0 -15
115 -90 200 -129 137 -64 223 -81 410 -81 126 0 180 5 230 18 160 43 275 128
332 245 32 64 33 72 33 182 0 101 -3 121 -24 164 -29 60 -85 116 -155 155 -81
46 -219 100 -323 126 -112 28 -148 50 -148 91 0 24 6 31 39 43 35 13 49 13
133 -1 61 -10 120 -28 170 -52 42 -20 80 -33 84 -29 4 4 50 75 103 157 90 138
96 149 79 162 -37 29 -220 113 -283 129 -90 24 -314 29 -400 10z"/>
<path d="M6251 5484 c-103 -28 -203 -93 -259 -169 l-21 -30 -1 88 0 87 -230 0
-230 0 0 -675 0 -675 230 0 229 0 3 393 c3 381 4 393 25 433 27 51 80 98 128
114 20 7 65 10 100 8 81 -5 133 -38 166 -105 24 -48 24 -50 27 -446 l3 -397
237 2 237 3 0 470 c-1 513 -4 544 -61 658 -33 64 -137 168 -201 201 -112 56
-263 72 -382 40z"/>
<path d="M12671 5490 c-269 -57 -476 -250 -541 -506 -25 -95 -27 -260 -5 -366
8 -40 34 -111 57 -158 33 -68 59 -102 132 -176 107 -107 191 -153 326 -180
100 -20 298 -15 395 10 89 23 234 100 299 157 53 48 146 166 146 185 0 5 -84
59 -187 120 l-187 111 -48 -52 c-64 -70 -130 -99 -223 -99 -52 0 -81 6 -111
22 -94 48 -152 160 -141 272 12 139 114 229 257 230 87 0 152 -30 214 -102
l48 -54 181 93 c99 51 182 95 185 97 11 12 -71 139 -129 201 -79 83 -164 136
-274 171 -66 22 -104 27 -215 30 -74 2 -155 -1 -179 -6z"/>
<path d="M14170 5493 c-285 -48 -502 -242 -571 -512 -27 -105 -27 -277 0 -384
32 -122 83 -209 181 -308 47 -47 107 -98 134 -112 131 -72 285 -104 455 -94
127 8 200 26 301 73 102 48 238 185 293 294 127 255 95 596 -75 795 -103 121
-256 213 -401 240 -72 14 -256 18 -317 8z m221 -459 c101 -30 179 -139 179
-249 0 -111 -80 -220 -184 -250 -116 -34 -230 -1 -291 84 -44 60 -59 116 -53
196 14 174 170 272 349 219z"/>
<path d="M16709 5486 c-94 -26 -160 -65 -225 -131 l-64 -65 0 85 0 85 -230 0
-230 0 0 -675 0 -675 229 0 230 0 3 388 c3 368 4 389 24 432 40 86 114 130
219 130 85 -1 156 -47 191 -125 5 -11 11 -200 14 -420 l5 -400 238 -3 238 -2
-4 487 c-4 519 -4 520 -56 637 -27 61 -148 183 -214 215 -26 13 -71 29 -100
37 -64 17 -206 17 -268 0z"/>
<path d="M18030 5494 c-181 -35 -329 -133 -392 -261 -44 -89 -50 -199 -18
-304 19 -63 30 -80 83 -133 77 -76 166 -120 353 -176 170 -51 194 -63 194 -95
0 -55 -97 -77 -220 -51 -75 16 -186 63 -272 116 l-47 29 -101 -162 -101 -162
33 -28 c131 -111 370 -187 588 -187 301 0 506 105 581 297 30 76 32 214 6 290
-28 79 -91 143 -195 196 -98 51 -228 99 -317 117 -76 16 -113 35 -127 65 -14
31 1 51 51 66 68 20 184 -7 366 -86 10 -5 187 278 189 302 2 22 -162 110 -259
139 -75 22 -113 27 -230 29 -77 2 -151 1 -165 -1z"/>
<path d="M7580 5475 c-103 -23 -203 -78 -287 -158 -85 -81 -139 -166 -180
-282 -25 -74 -27 -91 -28 -240 0 -182 12 -242 71 -364 54 -110 172 -229 278
-282 192 -94 420 -91 595 8 36 21 69 40 74 41 4 2 7 -17 7 -42 l0 -46 225 0
225 0 0 675 0 675 -232 -2 -233 -3 -3 -47 -3 -47 -60 39 c-33 21 -88 48 -122
60 -82 28 -237 35 -327 15z m375 -453 c52 -26 110 -87 130 -135 19 -46 21
-139 4 -195 -17 -57 -70 -117 -133 -150 -65 -33 -179 -38 -237 -9 -115 57
-178 187 -149 306 23 95 83 162 179 198 50 19 156 11 206 -15z"/>
<path d="M9528 5480 c-56 -10 -140 -47 -203 -90 l-45 -31 0 51 0 50 -234 0
c-204 0 -235 -2 -240 -16 -8 -20 -8 -1838 0 -1858 5 -14 36 -16 240 -16 l234
0 2 319 3 320 54 -34 c78 -49 163 -75 267 -82 306 -19 573 181 655 494 26 99
28 274 5 383 -44 200 -188 386 -363 467 -101 47 -251 64 -375 43z m128 -456
c49 -23 104 -79 129 -129 27 -54 28 -185 2 -233 -71 -130 -212 -183 -351 -132
-160 60 -218 276 -110 417 27 36 98 81 147 94 48 12 139 4 183 -17z"/>
<path d="M11200 5477 c-70 -17 -120 -39 -176 -77 -25 -16 -49 -30 -55 -30 -5
0 -9 20 -9 45 l0 45 -235 0 -235 0 0 -945 0 -945 235 0 235 0 0 315 c0 248 3
315 13 315 7 0 28 -11 47 -23 114 -77 286 -105 436 -72 123 27 212 74 297 158
93 90 138 161 179 279 30 88 32 101 32 238 0 167 -13 228 -74 355 -71 146
-209 269 -360 321 -90 32 -243 41 -330 21z m96 -442 c104 -31 173 -121 182
-236 11 -155 -90 -274 -244 -287 -114 -9 -204 39 -259 139 -50 92 -38 223 28
299 33 39 71 64 119 81 65 22 109 24 174 4z"/>
<path d="M15250 4785 l0 -675 235 0 235 0 0 675 0 675 -235 0 -235 0 0 -675z"/>
<path d="M0 10 c0 -7 3203 -10 9590 -10 6387 0 9590 3 9590 10 0 7 -3203 10
-9590 10 -6387 0 -9590 -3 -9590 -10z"/>
</g>
</svg>
