<?xml version="1.0" encoding="utf-8"?>
<!-- Generator: Adobe Illustrator 24.0.1, SVG Export Plug-In . SVG Version: 6.00 Build 0)  -->
<svg version="1.1" id="Layer_1" xmlns="http://www.w3.org/2000/svg" xmlns:xlink="http://www.w3.org/1999/xlink" x="0px" y="0px"
	 viewBox="0 0 169.9 35" style="enable-background:new 0 0 169.9 35;" xml:space="preserve">
<style type="text/css">
	.st0{fill:#C40606;}
</style>
<g>
	<path d="M36.4,23.4l1.8-2.9c1.3,0.9,2.6,1.4,3.7,1.4c0.7,0,1.1-0.2,1.1-0.6c0-0.2-0.2-0.3-0.5-0.4c-0.3-0.1-2.5-0.7-3-1
		c-1.6-0.7-2.3-1.8-2.3-3.3c0-1.2,0.5-2.1,1.4-2.8c0.9-0.7,2.2-1.1,3.7-1.1c1.7,0,3.2,0.5,4.6,1.5L45.1,17c-1-0.6-2-0.9-2.9-0.9
		c-0.6,0-0.9,0.2-0.9,0.5s0.4,0.6,1.1,0.7c1,0.2,2,0.6,2.8,1c1.5,0.7,2,1.7,2,3c0,1.2-0.5,2.2-1.4,2.9c-0.9,0.7-2.2,1.1-3.9,1.1
		C39.8,25.3,38,24.7,36.4,23.4z"/>
	<path d="M48.9,25V13.1H53v1.6c0.5-1,1.9-2,3.7-2c1.3,0,2.3,0.4,3.2,1.3c0.9,0.8,1.3,2.1,1.3,3.6V25H57v-6.2c0-1.4-0.7-2.2-1.9-2.2
		c-1.3,0-2.1,0.9-2.1,2.3V25H48.9z"/>
	<path d="M71.9,13.1h4V25h-4v-0.8c-1,0.7-2.1,1.1-3.3,1.1c-1.7,0-3.1-0.6-4.2-1.8c-1.1-1.2-1.6-2.7-1.6-4.5c0-1.8,0.6-3.3,1.6-4.4
		c1.1-1.2,2.5-1.8,4.1-1.8c1.3,0,2.4,0.4,3.3,1.2V13.1z M71.2,20.8c0.5-0.5,0.7-1.1,0.7-1.7c0-0.7-0.2-1.2-0.7-1.7
		c-0.5-0.5-1-0.7-1.7-0.7c-1.4,0-2.4,1.1-2.4,2.4c0,0.7,0.2,1.2,0.7,1.7c0.5,0.5,1,0.7,1.7,0.7C70.1,21.5,70.7,21.2,71.2,20.8z"/>
	<path d="M89.6,14.6c1.1,1.2,1.6,2.7,1.6,4.4c0,1.8-0.5,3.2-1.6,4.4s-2.5,1.8-4.1,1.8c-1.2,0-2.3-0.4-3.2-1.1v5.7h-4.2V13.1h4.2V14
		c0.9-0.8,2-1.2,3.2-1.2C87.2,12.8,88.5,13.4,89.6,14.6z M87,19.1c0-1.3-1-2.4-2.4-2.4c-1.3,0-2.4,1-2.4,2.4c0,1.3,1,2.4,2.4,2.4
		C86,21.5,87,20.4,87,19.1z"/>
	<path d="M104.5,14.6c1.1,1.2,1.6,2.7,1.6,4.4c0,1.8-0.5,3.2-1.6,4.4c-1.1,1.2-2.5,1.8-4.1,1.8c-1.2,0-2.3-0.4-3.2-1.1v5.7H93V13.1
		h4.2V14c0.9-0.8,2-1.2,3.2-1.2C102,12.8,103.4,13.4,104.5,14.6z M101.8,19.1c0-1.3-1-2.4-2.4-2.4c-1.3,0-2.4,1-2.4,2.4
		c0,1.3,1,2.4,2.4,2.4C100.8,21.5,101.8,20.4,101.8,19.1z"/>
	<path d="M109.1,23.5c-1.2-1.2-1.8-2.7-1.8-4.5c0-1.8,0.6-3.3,1.8-4.5c1.2-1.2,2.7-1.8,4.6-1.8c2.5,0,4.7,1.2,5.7,3.6l-3.3,1.7
		c-0.6-0.9-1.3-1.4-2.3-1.4c-1.4,0-2.3,1-2.3,2.3c0,1.4,1,2.4,2.3,2.4c1,0,1.9-0.6,2.3-1.4l3.4,2c-1,2-3.2,3.3-5.8,3.3
		C111.8,25.3,110.2,24.7,109.1,23.5z"/>
	<path d="M126.8,25.3c-1.9,0-3.5-0.6-4.7-1.8c-1.2-1.2-1.8-2.7-1.8-4.5c0-1.8,0.6-3.3,1.8-4.5c1.2-1.2,2.8-1.8,4.7-1.8
		c1.9,0,3.5,0.6,4.7,1.8c1.2,1.2,1.8,2.7,1.8,4.5c0,1.8-0.6,3.3-1.8,4.5C130.3,24.8,128.7,25.3,126.8,25.3z M129.1,19
		c0-1.3-1-2.3-2.4-2.3c-1.3,0-2.3,1-2.3,2.3c0,1.4,1,2.4,2.3,2.4C128.1,21.4,129.1,20.4,129.1,19z"/>
	<path d="M137.2,7.5c1.3,0,2.4,1,2.4,2.3c0,1.3-1,2.3-2.4,2.3c-1.3,0-2.4-1-2.4-2.3C134.8,8.6,135.9,7.5,137.2,7.5z M139.3,25h-4.2
		V13.1h4.2V25z"/>
	<path d="M141.4,25V13.1h4.1v1.6c0.5-1,1.9-2,3.7-2c1.3,0,2.3,0.4,3.2,1.3c0.9,0.8,1.3,2.1,1.3,3.6V25h-4.2v-6.2
		c0-1.4-0.7-2.2-1.9-2.2c-1.3,0-2.1,0.9-2.1,2.3V25H141.4z"/>
	<path d="M155.1,23.4l1.8-2.9c1.3,0.9,2.6,1.4,3.7,1.4c0.7,0,1.1-0.2,1.1-0.6c0-0.2-0.2-0.3-0.5-0.4c-0.3-0.1-2.5-0.7-3-1
		c-1.6-0.7-2.3-1.8-2.3-3.3c0-1.2,0.5-2.1,1.4-2.8c0.9-0.7,2.2-1.1,3.7-1.1c1.7,0,3.2,0.5,4.6,1.5l-1.7,2.8c-1-0.6-2-0.9-2.9-0.9
		c-0.6,0-0.9,0.2-0.9,0.5s0.4,0.6,1.1,0.7c1,0.2,2,0.6,2.8,1c1.5,0.7,2,1.7,2,3c0,1.2-0.5,2.2-1.4,2.9c-0.9,0.7-2.2,1.1-3.9,1.1
		C158.5,25.3,156.7,24.7,155.1,23.4z"/>
</g>
<g>
	<path class="st0" d="M26.7,16.5c0-0.1,0-0.2-0.1-0.3c-2.3,0-4.6,0-6.9,0h-9.4c-0.5,0-1.1,0-1.7,0c0-0.1,0-0.1,0-0.1
		c0.1-0.4,0.2-0.9,0.4-1.3c0.3-0.9,0.8-1.7,1.4-2.4c1.3-1.5,3-2.4,5-2.7c0.8-0.1,1.6-0.1,2.5,0.1c0.8,0.2,1.5,0.4,2.2,0.8
		c1.6,0.8,2.7,2.1,3.5,3.7c0.1,0.1,0.1,0.2,0.3,0.2c0.8,0,1.5,0,2.3,0c0.1,0,0.1,0,0.2-0.1c-0.2-0.7-0.5-1.3-0.8-2
		c-1.1-2-2.7-3.4-4.7-4.4c-3.6-1.7-8.1-1.2-11.3,1.6c-2.7,2.4-3.8,5.5-3.5,9.1h18.1c-0.1,1-0.5,1.9-1,2.7c-0.9,1.6-2.3,2.7-4,3.4
		c-1.7,0.7-3.5,0.7-5.3,0.1c-2.2-0.8-3.8-2.2-4.8-4.4c-0.9,0-1.8,0-2.7,0c0,0.1,0,0.1,0,0.2c0.2,0.5,0.3,1,0.6,1.4
		c0.6,1.1,1.3,2.2,2.3,3c1.3,1.2,2.7,2,4.4,2.4c0.7,0.2,1.4,0.3,2.1,0.3c1,0.1,1.9,0,2.9-0.2c0.7-0.2,1.4-0.4,2.1-0.7
		c1.3-0.6,2.5-1.5,3.5-2.6c1.2-1.3,1.9-2.8,2.3-4.5c0.1-0.5,0.2-1,0.2-1.4C26.8,17.8,26.8,17.2,26.7,16.5z"/>
	<path class="st0" d="M28,18.9c-0.5,3.3-1.9,5.9-4.5,7.9c-2.6,2-5.6,2.8-8.8,2.3c-5-0.7-9.5-4.8-10.1-10.6c-0.3-2.8,0.5-5.5,2.1-7.8
		c1.9-2.6,4.4-4.3,7.6-4.8c2.5-0.5,5-0.1,7.3,1.1c3.7,1.9,5.8,5,6.5,9.2c0.9,0,1.9,0,2.8,0c0.1-0.9-0.7-3.6-1.5-5.2
		c-1.3-2.5-3.1-4.5-5.6-6c-2.3-1.4-4.7-2.1-7.3-2.1c-4.2,0-7.9,1.5-10.8,4.6c-3.1,3.3-4.4,7.2-3.9,11.7c0.4,3.9,2.2,7.2,5.3,9.7
		c3.4,2.8,7.4,3.8,11.7,3.1c4.3-0.7,7.6-3.1,10-6.7c1.2-1.9,1.9-4,2.1-6.2C29.9,18.9,29,18.9,28,18.9z"/>
</g>
</svg>
