<?xml version="1.0" encoding="utf-8"?>
<!-- Generator: Adobe Illustrator 24.0.1, SVG Export Plug-In . SVG Version: 6.00 Build 0)  -->
<svg version="1.1" id="Layer_1" xmlns="http://www.w3.org/2000/svg" xmlns:xlink="http://www.w3.org/1999/xlink" x="0px" y="0px"
	 viewBox="0 0 35 35" xml:space="preserve">
<style type="text/css">
	.st0{fill:#FFFFFF;}
	.st1{fill:#C40606;}
</style>
<g>
	<path class="st1" d="M26.7,16.5c0-0.1,0-0.2-0.1-0.3c-2.3,0-4.6,0-6.9,0h-9.4c-0.5,0-1.1,0-1.7,0c0-0.1,0-0.1,0-0.1
		c0.1-0.4,0.2-0.9,0.4-1.3c0.3-0.9,0.8-1.7,1.4-2.4c1.3-1.5,3-2.4,5-2.7c0.8-0.1,1.6-0.1,2.5,0.1c0.8,0.2,1.5,0.4,2.2,0.8
		c1.6,0.8,2.7,2.1,3.5,3.7c0.1,0.1,0.1,0.2,0.3,0.2c0.8,0,1.5,0,2.3,0c0.1,0,0.1,0,0.2-0.1c-0.2-0.7-0.5-1.3-0.8-2
		c-1.1-2-2.7-3.4-4.7-4.4c-3.6-1.7-8.1-1.2-11.3,1.6c-2.7,2.4-3.8,5.5-3.5,9.1h18.1c-0.1,1-0.5,1.9-1,2.7c-0.9,1.6-2.3,2.7-4,3.4
		c-1.7,0.7-3.5,0.7-5.3,0.1c-2.2-0.8-3.8-2.2-4.8-4.4c-0.9,0-1.8,0-2.7,0c0,0.1,0,0.1,0,0.2c0.2,0.5,0.3,1,0.6,1.4
		c0.6,1.1,1.3,2.2,2.3,3c1.3,1.2,2.7,2,4.4,2.4c0.7,0.2,1.4,0.3,2.1,0.3c1,0.1,1.9,0,2.9-0.2c0.7-0.2,1.4-0.4,2.1-0.7
		c1.3-0.6,2.5-1.5,3.5-2.6c1.2-1.3,1.9-2.8,2.3-4.5c0.1-0.5,0.2-1,0.2-1.4C26.8,17.8,26.8,17.2,26.7,16.5z"/>
	<path class="st1" d="M28,18.9c-0.5,3.3-1.9,5.9-4.5,7.9c-2.6,2-5.6,2.8-8.8,2.3c-5-0.7-9.5-4.8-10.1-10.6c-0.3-2.8,0.5-5.5,2.1-7.8
		c1.9-2.6,4.4-4.3,7.6-4.8c2.5-0.5,5-0.1,7.3,1.1c3.7,1.9,5.8,5,6.5,9.2c0.9,0,1.9,0,2.8,0c0.1-0.9-0.7-3.6-1.5-5.2
		c-1.3-2.5-3.1-4.5-5.6-6c-2.3-1.4-4.7-2.1-7.3-2.1c-4.2,0-7.9,1.5-10.8,4.6c-3.1,3.3-4.4,7.2-3.9,11.7c0.4,3.9,2.2,7.2,5.3,9.7
		c3.4,2.8,7.4,3.8,11.7,3.1c4.3-0.7,7.6-3.1,10-6.7c1.2-1.9,1.9-4,2.1-6.2C29.9,18.9,29,18.9,28,18.9z"/>
</g>
</svg>
