<?xml version="1.0" encoding="utf-8"?>
<!-- Generator: Adobe Illustrator 15.0.0, SVG Export Plug-In . SVG Version: 6.00 Build 0)  -->
<!DOCTYPE svg PUBLIC "-//W3C//DTD SVG 1.1//EN" "http://www.w3.org/Graphics/SVG/1.1/DTD/svg11.dtd">
<svg version="1.1" id="Layer_1" xmlns="http://www.w3.org/2000/svg" xmlns:xlink="http://www.w3.org/1999/xlink" x="0px" y="0px"
	 width="80px" height="80px" viewBox="0 0 80 80" enable-background="new 0 0 80 80" xml:space="preserve">
<g>
	<polygon fill="#E17726" stroke="#E17726" stroke-linecap="round" stroke-linejoin="round" points="76.004,2 44.804,25.211 
		50.606,11.513 	"/>
	<g>
		<polygon fill="#E27625" stroke="#E27625" stroke-linecap="round" stroke-linejoin="round" points="3.9,2 34.911,25.401 
			29.394,11.513 		"/>
		<polygon fill="#E27625" stroke="#E27625" stroke-linecap="round" stroke-linejoin="round" points="64.78,55.746 56.409,68.492 
			74.293,73.439 79.334,56.031 		"/>
		<polygon fill="#E27625" stroke="#E27625" stroke-linecap="round" stroke-linejoin="round" points="0.666,56.031 5.708,73.439 
			23.496,68.492 15.22,55.746 		"/>
		<polygon fill="#E27625" stroke="#E27625" stroke-linecap="round" stroke-linejoin="round" points="22.544,34.248 17.598,41.762 
			35.196,42.523 34.625,23.499 		"/>
		<polygon fill="#E27625" stroke="#E27625" stroke-linecap="round" stroke-linejoin="round" points="57.455,34.248 45.185,23.309 
			44.804,42.523 62.402,41.762 		"/>
		<polygon fill="#E27625" stroke="#E27625" stroke-linecap="round" stroke-linejoin="round" points="23.496,68.492 34.15,63.355 
			24.923,56.126 		"/>
		<polygon fill="#E27625" stroke="#E27625" stroke-linecap="round" stroke-linejoin="round" points="45.85,63.355 56.409,68.492 
			54.982,56.126 		"/>
	</g>
	<g>
		<polygon fill="#D5BFB2" stroke="#D5BFB2" stroke-linecap="round" stroke-linejoin="round" points="56.409,68.492 45.85,63.355 
			46.707,70.205 46.611,73.154 		"/>
		<polygon fill="#D5BFB2" stroke="#D5BFB2" stroke-linecap="round" stroke-linejoin="round" points="23.496,68.492 33.389,73.154 
			33.293,70.205 34.15,63.355 		"/>
	</g>
	<polygon fill="#233447" stroke="#233447" stroke-linecap="round" stroke-linejoin="round" points="33.579,51.561 24.732,48.992 
		30.916,46.139 	"/>
	<polygon fill="#233447" stroke="#233447" stroke-linecap="round" stroke-linejoin="round" points="46.422,51.561 48.989,46.139 
		55.268,48.992 	"/>
	<g>
		<polygon fill="#CC6228" stroke="#CC6228" stroke-linecap="round" stroke-linejoin="round" points="23.496,68.492 25.018,55.746 
			15.22,56.031 		"/>
		<polygon fill="#CC6228" stroke="#CC6228" stroke-linecap="round" stroke-linejoin="round" points="54.982,55.746 56.409,68.492 
			64.78,56.031 		"/>
		<polygon fill="#CC6228" stroke="#CC6228" stroke-linecap="round" stroke-linejoin="round" points="62.402,41.762 44.804,42.523 
			46.422,51.561 48.989,46.139 55.268,48.992 		"/>
		<polygon fill="#CC6228" stroke="#CC6228" stroke-linecap="round" stroke-linejoin="round" points="24.732,48.992 30.916,46.139 
			33.579,51.561 35.196,42.523 17.598,41.762 		"/>
	</g>
	<g>
		<polygon fill="#E27525" stroke="#E27525" stroke-linecap="round" stroke-linejoin="round" points="17.598,41.762 24.923,56.126 
			24.732,48.992 		"/>
		<polygon fill="#E27525" stroke="#E27525" stroke-linecap="round" stroke-linejoin="round" points="55.268,48.992 54.982,56.126 
			62.402,41.762 		"/>
		<polygon fill="#E27525" stroke="#E27525" stroke-linecap="round" stroke-linejoin="round" points="35.196,42.523 33.579,51.561 
			35.577,62.31 36.052,48.136 		"/>
		<polygon fill="#E27525" stroke="#E27525" stroke-linecap="round" stroke-linejoin="round" points="44.804,42.523 43.947,48.136 
			44.328,62.31 46.422,51.561 		"/>
	</g>
	<polygon fill="#F5841F" stroke="#F5841F" stroke-linecap="round" stroke-linejoin="round" points="46.422,51.561 44.328,62.31 
		45.85,63.355 54.982,56.126 55.268,48.992 	"/>
	<polygon fill="#F5841F" stroke="#F5841F" stroke-linecap="round" stroke-linejoin="round" points="24.732,48.992 24.923,56.126 
		34.15,63.355 35.577,62.31 33.579,51.561 	"/>
	<polygon fill="#C0AC9D" stroke="#C0AC9D" stroke-linecap="round" stroke-linejoin="round" points="46.611,73.154 46.707,70.205 
		45.85,69.539 34.055,69.539 33.293,70.205 33.389,73.154 23.496,68.492 26.92,71.347 33.959,76.197 45.945,76.197 52.984,71.347 
		56.409,68.492 	"/>
	<polygon fill="#161616" stroke="#161616" stroke-linecap="round" stroke-linejoin="round" points="45.85,63.355 44.328,62.31 
		35.577,62.31 34.15,63.355 33.293,70.205 34.055,69.539 45.85,69.539 46.707,70.205 	"/>
	<g>
		<polygon fill="#763E1A" stroke="#763E1A" stroke-linecap="round" stroke-linejoin="round" points="77.336,26.732 80,13.891 
			76.004,2 45.85,24.45 57.455,34.248 73.816,39.004 77.432,34.818 75.91,33.677 78.383,31.394 76.48,29.872 78.954,27.969 		"/>
		<polygon fill="#763E1A" stroke="#763E1A" stroke-linecap="round" stroke-linejoin="round" points="0,13.891 2.664,26.732 
			0.951,27.969 3.424,29.872 1.522,31.394 4.09,33.677 2.473,34.818 6.088,39.004 22.544,34.248 34.15,24.45 3.9,2 		"/>
	</g>
	<polygon fill="#F5841F" stroke="#F5841F" stroke-linecap="round" stroke-linejoin="round" points="73.816,39.004 57.455,34.248 
		62.402,41.762 54.982,56.126 64.78,56.031 79.334,56.031 	"/>
	<polygon fill="#F5841F" stroke="#F5841F" stroke-linecap="round" stroke-linejoin="round" points="22.544,34.248 6.088,39.004 
		0.666,56.031 15.22,56.031 24.923,56.126 17.598,41.762 	"/>
	<polygon fill="#F5841F" stroke="#F5841F" stroke-linecap="round" stroke-linejoin="round" points="44.804,42.523 45.85,24.45 
		50.606,11.513 29.394,11.513 34.15,24.45 35.196,42.523 35.577,48.23 35.577,62.31 44.328,62.31 44.328,48.23 	"/>
</g>
</svg>
