<?xml version="1.0" encoding="utf-8"?>
<!-- Generator: Adobe Illustrator 15.0.0, SVG Export Plug-In . SVG Version: 6.00 Build 0)  -->
<!DOCTYPE svg PUBLIC "-//W3C//DTD SVG 1.1//EN" "http://www.w3.org/Graphics/SVG/1.1/DTD/svg11.dtd">
<svg version="1.1" id="Layer_1" xmlns="http://www.w3.org/2000/svg" xmlns:xlink="http://www.w3.org/1999/xlink" x="0px" y="0px"
	 width="80px" height="80px" viewBox="0 0 80 80" enable-background="new 0 0 80 80" xml:space="preserve">
<g transform="matrix(1,0,0,1,194.28700256347656,119)">
	<path fill="#3A99FB" d="M-177.899-93.847c13.042-12.772,34.183-12.772,47.243,0l1.568,1.535c0.658,0.641,0.658,1.67,0,2.312
		l-5.365,5.264c-0.32,0.32-0.861,0.32-1.182,0l-2.159-2.109c-9.095-8.909-23.857-8.909-32.952,0l-2.312,2.261
		c-0.321,0.321-0.86,0.321-1.181,0l-5.382-5.264c-0.658-0.641-0.658-1.67,0-2.312L-177.899-93.847z M-119.555-82.981l4.774,4.673
		c0.658,0.642,0.658,1.671,0,2.312l-21.546,21.107c-0.658,0.641-1.704,0.641-2.362,0l-15.303-14.982
		c-0.168-0.152-0.421-0.152-0.59,0l-15.286,14.982c-0.658,0.641-1.704,0.641-2.362,0l-21.563-21.091
		c-0.658-0.642-0.658-1.671,0-2.312l4.775-4.674c0.658-0.641,1.705-0.641,2.362,0l15.303,14.982c0.168,0.152,0.422,0.152,0.59,0
		l15.287-14.982c0.658-0.641,1.704-0.641,2.362,0l15.304,14.982c0.168,0.152,0.422,0.152,0.59,0l15.304-14.982
		C-121.275-83.623-120.213-83.623-119.555-82.981z"/>
</g>
</svg>
