<?xml version="1.0" encoding="utf-8"?>
<!-- Generator: Adobe Illustrator 15.0.0, SVG Export Plug-In . SVG Version: 6.00 Build 0)  -->
<!DOCTYPE svg PUBLIC "-//W3C//DTD SVG 1.1//EN" "http://www.w3.org/Graphics/SVG/1.1/DTD/svg11.dtd">
<svg version="1.1" id="Layer_1" xmlns="http://www.w3.org/2000/svg" xmlns:xlink="http://www.w3.org/1999/xlink" x="0px" y="0px"
	 width="360px" height="380px" viewBox="0 0 360 380" enable-background="new 0 0 360 380" xml:space="preserve">
<g id="white_screen">
	<path fill="#445462" d="M350.064,379.333H8.559c-4.721,0-8.559-4.018-8.559-8.954V8.287c0-4.938,3.838-8.954,8.559-8.954h341.507
		c4.718,0,8.556,4.016,8.556,8.954v362.092C358.621,375.316,354.783,379.333,350.064,379.333z M8.559,3.302
		c-2.531,0-4.59,2.236-4.59,4.985v362.092c0,2.748,2.059,4.984,4.59,4.984h341.507c2.529,0,4.588-2.236,4.588-4.984V8.287
		c0-2.749-2.059-4.985-4.588-4.985H8.559z"/>
</g>
<g id="white_screen_1_">
	<path fill="#DAE3E8" d="M324.46,173.429H34.163V66.02H324.46V173.429z M38.131,169.46h282.36V69.989H38.131V169.46z"/>
</g>
<g id="buttons">
	<g>
		<circle fill="#445462" cx="21.332" cy="15.167" r="4.566"/>
	</g>
	<g>
		<circle fill="#445462" cx="36.147" cy="15.167" r="4.566"/>
	</g>
	<g>
		<circle fill="#445462" cx="50.963" cy="15.167" r="4.566"/>
	</g>
</g>
<g>
	<path fill="#DAE3E8" d="M85.106,241.993c-15.304,0-27.755-12.451-27.755-27.755c0-15.305,12.451-27.755,27.755-27.755
		c15.305,0,27.755,12.451,27.755,27.755C112.861,229.542,100.411,241.993,85.106,241.993z M85.106,190.452
		c-13.115,0-23.787,10.669-23.787,23.786c0,13.115,10.672,23.787,23.787,23.787c13.116,0,23.786-10.672,23.786-23.787
		C108.893,201.122,98.223,190.452,85.106,190.452z"/>
</g>
<g>
	<path fill="#DAE3E8" d="M179.312,241.993c-15.305,0-27.755-12.451-27.755-27.755c0-15.305,12.45-27.755,27.755-27.755
		c15.304,0,27.754,12.451,27.754,27.755C207.066,229.542,194.615,241.993,179.312,241.993z M179.312,190.452
		c-13.116,0-23.787,10.669-23.787,23.786c0,13.115,10.671,23.787,23.787,23.787c13.115,0,23.786-10.672,23.786-23.787
		C203.098,201.122,192.427,190.452,179.312,190.452z"/>
</g>
<g>
	<path fill="#DAE3E8" d="M273.516,241.993c-15.304,0-27.754-12.451-27.754-27.755c0-15.305,12.45-27.755,27.754-27.755
		c15.305,0,27.756,12.451,27.756,27.755C301.271,229.542,288.82,241.993,273.516,241.993z M273.516,190.452
		c-13.115,0-23.785,10.669-23.785,23.786c0,13.115,10.67,23.787,23.785,23.787c13.117,0,23.786-10.672,23.786-23.787
		C297.302,201.122,286.633,190.452,273.516,190.452z"/>
</g>
<g>
	<rect x="58.105" y="249.145" fill="#DAE3E8" width="54.069" height="3.97"/>
</g>
<g>
	<rect x="58.105" y="257.887" fill="#DAE3E8" width="54.069" height="3.969"/>
</g>
<g>
	<rect x="68.688" y="266.629" fill="#DAE3E8" width="32.904" height="3.969"/>
</g>
<g>
	<rect x="152.276" y="249.145" fill="#DAE3E8" width="54.07" height="3.97"/>
</g>
<g>
	<rect x="152.276" y="257.887" fill="#DAE3E8" width="54.07" height="3.969"/>
</g>
<g>
	<rect x="162.859" y="266.629" fill="#DAE3E8" width="32.905" height="3.969"/>
</g>
<g>
	<rect x="246.447" y="249.145" fill="#DAE3E8" width="54.07" height="3.97"/>
</g>
<g>
	<rect x="246.447" y="257.887" fill="#DAE3E8" width="54.07" height="3.969"/>
</g>
<g>
	<rect x="257.031" y="266.629" fill="#DAE3E8" width="32.904" height="3.969"/>
</g>
<g>
	<g id="white_screen_79_">
		<path fill="#DAE3E8" d="M217.126,350.211h-64.52v-16.873h64.52V350.211z M156.576,346.242h56.581v-8.936h-56.581V346.242
			L156.576,346.242z"/>
	</g>
	<g>
		<path fill="#DAE3E8" d="M138.964,350.202H58.025v-62.666h80.938L138.964,350.202L138.964,350.202z M61.993,346.233h73.003v-54.729
			H61.993V346.233z"/>
	</g>
	<g>
		<path fill="#DAE3E8" d="M58.027,350.211v-11.174l29.247-20.214l16.13,12.891l35.56-25.119v43.608L58.027,350.211z M61.995,341.119
			v5.123l73.001-0.007v-31.979l-31.738,22.42l-16.156-12.911L61.995,341.119z"/>
	</g>
	<g>
		<rect x="152.276" y="287.686" fill="#DAE3E8" width="75.32" height="3.969"/>
	</g>
	<g>
		<rect x="152.276" y="298.957" fill="#DAE3E8" width="148.299" height="3.969"/>
	</g>
	<g>
		<rect x="152.276" y="310.229" fill="#DAE3E8" width="148.299" height="3.97"/>
	</g>
	<g>
		<rect x="152.276" y="321.501" fill="#DAE3E8" width="122.088" height="3.969"/>
	</g>
</g>
<g>
	<rect x="34.164" y="40.187" fill="#445462" width="19.187" height="3.969"/>
</g>
<g>
	<rect x="34.164" y="47.055" fill="#445462" width="19.187" height="3.969"/>
</g>
<g>
	<rect x="34.164" y="53.923" fill="#445462" width="19.187" height="3.969"/>
</g>
<g>
	<rect x="95.709" y="47.055" fill="#445462" width="30.239" height="3.969"/>
</g>
<g>
	<rect x="141.364" y="47.055" fill="#445462" width="30.239" height="3.969"/>
</g>
<g>
	<rect x="187.02" y="47.055" fill="#445462" width="30.237" height="3.969"/>
</g>
<g>
	<rect x="232.676" y="47.055" fill="#445462" width="30.237" height="3.969"/>
</g>
<g>
	<rect x="1.984" y="26.51" fill="#445462" width="354.653" height="3.968"/>
</g>
</svg>
